<svg width="84" height="100" viewBox="0 0 84 100" fill="none" xmlns="http://www.w3.org/2000/svg">
<path d="M75.0034 78.4211V78.5419L75.1215 78.5676C79.8871 79.6054 83.5154 83.8607 83.5154 89.1579C83.5154 95.0753 78.7483 99.85 72.8415 99.85C66.9347 99.85 62.1676 95.0753 62.1676 89.1579C62.1676 83.9668 65.795 79.7108 70.5615 78.6729L70.6796 78.6472V78.5263V76.1053C70.6796 71.8121 67.2499 68.3763 62.9634 68.3763H44.4682H44.3182V68.5263V78.5263V78.6472L44.4363 78.6729C49.202 79.7106 52.8302 84.0712 52.8302 89.1579C52.8302 95.0753 48.0632 99.85 42.1563 99.85C36.2495 99.85 31.4825 95.0753 31.4825 89.1579C31.4825 83.9668 35.1098 79.7108 39.8764 78.6729L39.9944 78.6472V78.5263V68.5263V68.3763H39.8444H21.034C16.7475 68.3763 13.3178 71.8121 13.3178 76.1053V78.5263V78.6472L13.4359 78.6729C18.2016 79.7106 21.8298 84.0712 21.8298 89.1579C21.8298 95.0753 17.0627 99.85 11.1559 99.85C5.24908 99.85 0.482031 95.0753 0.482031 89.1579C0.482031 83.9668 4.1094 79.7108 8.87593 78.6729L8.99401 78.6472V78.5263V76.1053C8.99401 69.5555 14.2873 64.15 20.9289 64.15H39.6343H39.7843V64V53.579V53.429H39.6343H20.7188C10.9237 53.429 3.0041 45.4963 3.0041 35.6842C3.0041 25.9762 10.7154 18.1482 20.3017 17.9394L20.4115 17.937L20.4424 17.8316C23.4712 7.47431 33.1857 0.15 44.0479 0.15C56.8957 0.15 67.236 9.67005 68.594 22.2267L68.6054 22.3322L68.7087 22.3565C75.7882 24.0251 80.8882 30.2815 80.8882 37.6842C80.8882 46.3385 73.9144 53.3237 65.2753 53.3237H44.2581H44.1081V53.4737V63.8947V64.0447H44.2581H63.0685C69.6067 64.0447 75.0034 69.3466 75.0034 76V78.4211ZM24.1451 20.4947L24.145 20.4947L24.1441 20.4995C23.9498 21.5701 22.9825 22.2581 21.9049 22.1679C21.5688 22.0605 21.1365 22.0605 20.7364 22.0605H20.7188C13.2789 22.0605 7.32789 28.1287 7.32789 35.4737C7.32789 42.9251 13.2796 48.8857 20.7166 48.9921H20.7188H65.2753C71.5585 48.9921 76.6695 43.8721 76.6695 37.5789C76.6695 31.7139 72.3038 26.8052 66.4448 26.2717C65.3586 26.1728 64.4795 25.2835 64.4796 24.2105L64.4795 24.2063C64.1619 13.0731 55.2688 4.37632 44.153 4.37632C34.5195 4.37632 26.1566 11.1625 24.1451 20.4947ZM11.0508 95.4132C14.495 95.4132 17.4009 92.6106 17.4009 89.0526C17.4009 85.4947 14.495 82.6921 11.0508 82.6921C7.60664 82.6921 4.70074 85.4947 4.70074 89.0526C4.70074 92.5037 7.60499 95.4132 11.0508 95.4132ZM41.9462 95.4132C45.3903 95.4132 48.2962 92.6106 48.2962 89.0526C48.2962 85.4947 45.3903 82.6921 41.9462 82.6921C38.502 82.6921 35.5961 85.4947 35.5961 89.0526C35.5961 92.5037 38.5003 95.4132 41.9462 95.4132ZM66.4914 89.0526C66.4914 92.502 69.2889 95.4132 72.8415 95.4132C76.3924 95.4132 79.1916 92.6089 79.1916 89.0526C79.1916 85.6016 76.2873 82.6921 72.8415 82.6921C69.3973 82.6921 66.4914 85.4947 66.4914 89.0526Z" fill="#D2D2D2" stroke="#323130" stroke-width="0.3"/>
</svg>
