<svg width="120" height="100" viewBox="0 0 120 100" fill="none" xmlns="http://www.w3.org/2000/svg">
<path d="M112.1 15V15.4H112.5C114.383 15.4 116.189 16.148 117.52 17.4795C118.852 18.811 119.6 20.617 119.6 22.5V92.5C119.6 94.383 118.852 96.1889 117.52 97.5204C116.189 98.852 114.383 99.6 112.5 99.6H67.5C65.617 99.6 63.8111 98.852 62.4795 97.5204C61.148 96.1889 60.4 94.383 60.4 92.5V80V79.6H60H12.5C9.29088 79.6 6.2132 78.3252 3.94401 76.056C1.67482 73.7868 0.4 70.7091 0.4 67.5V62.5C0.4 61.943 0.62125 61.4089 1.01507 61.0151C1.4089 60.6212 1.94305 60.4 2.5 60.4H7.5H7.9V60V2.5C7.9 1.94305 8.12125 1.4089 8.51508 1.01508C8.9089 0.62125 9.44305 0.4 10 0.4H110C110.557 0.4 111.091 0.62125 111.485 1.01508C111.879 1.4089 112.1 1.94304 112.1 2.5V15ZM65 34.6H64.6V35V80V80.4H65H115H115.4V80V35V34.6H115H65ZM115 30.4H115.4V30V22.5C115.4 21.7309 115.094 20.9932 114.551 20.4494C114.007 19.9055 113.269 19.6 112.5 19.6H67.5C66.7309 19.6 65.9932 19.9055 65.4494 20.4494C64.9055 20.9932 64.6 21.7309 64.6 22.5V30V30.4H65H115ZM12.5 4.6H12.1V5V60V60.4H12.5H40C41.883 60.4 43.6889 61.148 45.0205 62.4795C46.352 63.811 47.1 65.617 47.1 67.5V67.9H47.5H60H60.4V67.5V22.5C60.4 20.617 61.148 18.811 62.4795 17.4795C63.8111 16.148 65.617 15.4 67.5 15.4H107.5H107.9V15V5V4.6H107.5H12.5ZM5 64.6H4.6V65V67.5C4.6 69.5952 5.43232 71.6046 6.91386 73.0861C8.39539 74.5677 10.4048 75.4 12.5 75.4H60H60.4V75V72.5V72.1H60H45C44.443 72.1 43.9089 71.8787 43.5151 71.4849C43.1212 71.0911 42.9 70.5569 42.9 70V67.5C42.9 66.7309 42.5945 65.9932 42.0506 65.4494C41.5068 64.9055 40.7691 64.6 40 64.6H5ZM65 84.6H64.6V85V92.5C64.6 93.2691 64.9055 94.0067 65.4494 94.5506C65.9932 95.0945 66.7309 95.4 67.5 95.4H112.5C113.269 95.4 114.007 95.0945 114.551 94.5506C115.094 94.0067 115.4 93.2691 115.4 92.5V85V84.6H115H65Z" fill="#D2D2D2" stroke="#323130" stroke-width="0.8"/>
<path d="M105 49.6004H75C74.443 49.6004 73.9089 49.3791 73.5151 48.9853C73.1212 48.5915 72.9 48.0573 72.9 47.5004C72.9 46.9434 73.1212 46.4093 73.5151 46.0154C73.9089 45.6216 74.443 45.4004 75 45.4004H105C105.557 45.4004 106.091 45.6216 106.485 46.0154C106.879 46.4093 107.1 46.9434 107.1 47.5004C107.1 48.0573 106.879 48.5915 106.485 48.9853C106.091 49.3791 105.557 49.6004 105 49.6004Z" fill="#D2D2D2" stroke="#323130" stroke-width="0.8"/>
<path d="M75 55.3988H105C105.557 55.3988 106.091 55.62 106.485 56.0139C106.879 56.4077 107.1 56.9418 107.1 57.4988C107.1 58.0557 106.879 58.5899 106.485 58.9837C106.091 59.3775 105.557 59.5988 105 59.5988H75C74.443 59.5988 73.9089 59.3775 73.5151 58.9837C73.1212 58.5899 72.9 58.0557 72.9 57.4988C72.9 56.9418 73.1212 56.4077 73.5151 56.0139C73.9089 55.62 74.443 55.3988 75 55.3988Z" fill="#D2D2D2" stroke="#323130" stroke-width="0.8"/>
<path d="M75 65.4007H97.5C98.057 65.4007 98.5911 65.622 98.9849 66.0158C99.3788 66.4096 99.6 66.9438 99.6 67.5007C99.6 68.0577 99.3788 68.5918 98.9849 68.9857C98.5911 69.3795 98.057 69.6007 97.5 69.6007H75C74.443 69.6007 73.9089 69.3795 73.5151 68.9857C73.1212 68.5918 72.9 68.0577 72.9 67.5007C72.9 66.9438 73.1212 66.4096 73.5151 66.0158C73.9089 65.622 74.443 65.4007 75 65.4007Z" fill="#D2D2D2" stroke="#323130" stroke-width="0.8"/>
</svg>
