<svg xmlns="http://www.w3.org/2000/svg" viewBox="0 0 31.5 28">
	<path d="M29.25,0h-27A2.25,2.25,0,0,0,0,2.25v19A2.25,2.25,0,0,0,2.25,23.5H15.5v4H8.25a.25.25,0,0,0,0,.5h15a.25.25,0,0,0,0-.5H16v-4H29.25a2.25,2.25,0,0,0,2.25-2.25v-19A2.25,2.25,0,0,0,29.25,0ZM2.25.5h27A1.76,1.76,0,0,1,31,2.25V11.5H29.39L27,7.62a.25.25,0,0,0-.42,0L24.11,11.5H21a5.22,5.22,0,0,0-10.44,0H7.75a.22.22,0,0,0-.21.12L5.25,15.28,3,11.62a.22.22,0,0,0-.21-.12H.5V2.25A1.76,1.76,0,0,1,2.25.5ZM20.5,11.75A4.75,4.75,0,1,1,15.75,7,4.75,4.75,0,0,1,20.5,11.75ZM29.25,23h-27A1.76,1.76,0,0,1,.5,21.25V12H2.61L5,15.88a.24.24,0,0,0,.42,0L7.89,12h2.64A5.22,5.22,0,0,0,21,12h3.28a.22.22,0,0,0,.21-.12l2.29-3.66L29,11.88a.22.22,0,0,0,.21.12H31v9.25A1.76,1.76,0,0,1,29.25,23Z"/>
	<path d="M18.4,9.81,15,13.16,13.1,11.22a.25.25,0,0,0-.36,0,.26.26,0,0,0,0,.35l2.13,2.12a.25.25,0,0,0,.17.08.25.25,0,0,0,.18-.08l3.54-3.53a.26.26,0,0,0,0-.35A.25.25,0,0,0,18.4,9.81Z"/>
</svg>